<?xml version="1.0" encoding="utf-8"?>
<!-- Generator: Adobe Illustrator 26.0.1, SVG Export Plug-In . SVG Version: 6.00 Build 0)  -->
<svg version="1.1" id="Layer_1" xmlns="http://www.w3.org/2000/svg" xmlns:xlink="http://www.w3.org/1999/xlink" x="0px" y="0px"
	 viewBox="0 0 24 24" style="enable-background:new 0 0 24 24;" xml:space="preserve">
<style type="text/css">
	.st0{fill-rule:evenodd;clip-rule:evenodd;fill:#FFFFFF;}
</style>
<path class="st0" d="M21.8,18.1l-2.4-0.6c-0.3-0.1-0.5-0.3-0.5-0.6L18.6,8c-0.1-1.2-1-2.1-1.9-2.4c-0.1,0-0.1,0-0.1,0
	c0,0,0,0.1,0,0.1c0.2,0.2,0.9,0.7,0.9,1.7l0,11.6c0,1.1-1.1,1.9-2.2,1.7l-2.5-0.6c-0.3-0.1-0.5-0.3-0.5-0.6L12,10.7
	c-0.1-1.2-1-2.1-1.9-2.4c-0.1,0-0.1,0-0.1,0c0,0,0,0.1,0,0.1c0.2,0.2,0.9,0.7,0.9,1.7l0,9.6l0,0v1.9c0,1.1-1.1,1.9-2.2,1.7l-7-1.7
	c-1-0.2-1.7-1.1-1.7-2.1V8c0-1.1,1.1-1.9,2.2-1.7l4.4,1.1V5.4c0-1.1,1.1-1.9,2.2-1.7l4.4,1.1V2.7c0-1.1,1.1-1.9,2.2-1.7l7,1.7
	C23.3,3,24,3.8,24,4.8v11.6C24,17.5,22.9,18.4,21.8,18.1z"/>
</svg>
