<?xml version="1.0" encoding="utf-8"?>
<!-- Generator: Adobe Illustrator 26.0.1, SVG Export Plug-In . SVG Version: 6.00 Build 0)  -->
<svg version="1.1" id="Layer_1" xmlns="http://www.w3.org/2000/svg" xmlns:xlink="http://www.w3.org/1999/xlink" x="0px" y="0px"
	 viewBox="0 0 161.9 40" style="enable-background:new 0 0 161.9 40;" xml:space="preserve">
<style type="text/css">
	.st0{fill:#FFFFFF;}
	.st1{fill:url(#SVGID_1_);}
	.st2{fill:url(#SVGID_00000042721563961826710370000002451621272584247966_);}
	.st3{fill:url(#SVGID_00000173129419876014808970000016584527644194881192_);}
	.st4{fill:url(#SVGID_00000123432486685790056900000017114255193458249897_);}
	.st5{fill:url(#SVGID_00000049936756939029917810000002825927906131393977_);}
	.st6{fill:url(#SVGID_00000106826237945254663070000006697953846794834332_);}
	.st7{fill:url(#SVGID_00000119087635381677399180000001085135515975359637_);}
</style>
<path class="st0" d="M58.8,15.5c-0.1-1.1-0.6-2.1-1.4-2.8c-0.8-0.7-1.9-1.1-3.2-1.1c-0.9,0-1.7,0.2-2.4,0.5
	c-0.7,0.3-1.2,0.8-1.6,1.3c-0.4,0.6-0.6,1.2-0.6,1.9c0,0.5,0.1,0.9,0.3,1.3c0.2,0.4,0.4,0.7,0.8,1c0.3,0.3,0.7,0.5,1.2,0.8
	c0.5,0.2,1,0.4,1.5,0.6l2,0.6c0.7,0.2,1.3,0.4,1.9,0.7c0.6,0.3,1.1,0.6,1.5,1c0.4,0.4,0.8,0.8,1,1.3c0.2,0.5,0.4,1.1,0.4,1.8
	c0,1-0.3,1.8-0.8,2.6c-0.5,0.8-1.2,1.4-2.1,1.8c-0.9,0.4-2,0.7-3.2,0.7c-1.2,0-2.2-0.2-3.1-0.6c-0.9-0.4-1.6-1-2.1-1.7
	c-0.5-0.7-0.8-1.5-0.9-2.5h1.1c0.1,0.8,0.3,1.4,0.7,2c0.4,0.5,1,1,1.7,1.3c0.7,0.3,1.5,0.4,2.4,0.4c1,0,1.8-0.2,2.6-0.5
	c0.8-0.3,1.3-0.8,1.8-1.4c0.4-0.6,0.6-1.3,0.6-2.1c0-0.6-0.2-1.2-0.5-1.7c-0.3-0.5-0.8-0.9-1.3-1.2c-0.6-0.3-1.3-0.6-2.2-0.9
	L52.9,20c-1.4-0.4-2.5-1-3.3-1.8c-0.8-0.8-1.1-1.7-1.1-2.8c0-0.9,0.3-1.8,0.8-2.5c0.5-0.7,1.2-1.3,2-1.7c0.9-0.4,1.8-0.6,2.9-0.6
	c1.1,0,2.1,0.2,2.9,0.6c0.8,0.4,1.5,1,2,1.7c0.5,0.7,0.8,1.6,0.8,2.5H58.8z M62.7,10.9h1.3l5.8,8.8h0.1l5.8-8.8H77l-6.6,10v8.3h-1.1
	v-8.3L62.7,10.9z M90.3,15.5c-0.1-1.1-0.6-2.1-1.4-2.8c-0.8-0.7-1.9-1.1-3.2-1.1c-0.9,0-1.7,0.2-2.4,0.5c-0.7,0.3-1.2,0.8-1.6,1.3
	c-0.4,0.6-0.6,1.2-0.6,1.9c0,0.5,0.1,0.9,0.3,1.3c0.2,0.4,0.4,0.7,0.8,1c0.3,0.3,0.7,0.5,1.2,0.8c0.5,0.2,1,0.4,1.5,0.6l2,0.6
	c0.7,0.2,1.3,0.4,1.9,0.7c0.6,0.3,1.1,0.6,1.5,1c0.4,0.4,0.8,0.8,1,1.3c0.2,0.5,0.4,1.1,0.4,1.8c0,1-0.3,1.8-0.8,2.6
	c-0.5,0.8-1.2,1.4-2.1,1.8c-0.9,0.4-2,0.7-3.2,0.7c-1.2,0-2.2-0.2-3.1-0.6c-0.9-0.4-1.6-1-2.1-1.7c-0.5-0.7-0.8-1.5-0.9-2.5h1.1
	c0.1,0.8,0.3,1.4,0.7,2c0.4,0.5,1,1,1.7,1.3c0.7,0.3,1.5,0.4,2.4,0.4c1,0,1.8-0.2,2.6-0.5c0.8-0.3,1.3-0.8,1.8-1.4
	c0.4-0.6,0.6-1.3,0.6-2.1c0-0.6-0.2-1.2-0.5-1.7c-0.3-0.5-0.8-0.9-1.3-1.2c-0.6-0.3-1.3-0.6-2.2-0.9L84.4,20c-1.4-0.4-2.5-1-3.3-1.8
	c-0.8-0.8-1.1-1.7-1.1-2.8c0-0.9,0.3-1.8,0.8-2.5c0.5-0.7,1.2-1.3,2-1.7c0.9-0.4,1.8-0.6,2.9-0.6c1.1,0,2.1,0.2,2.9,0.6
	c0.8,0.4,1.5,1,2,1.7c0.5,0.7,0.8,1.6,0.8,2.5H90.3z M94.9,11.9v-1h12.8v1h-5.9v17.3h-1.1V11.9H94.9z M111.8,29.2V10.9H122v1h-9.1
	v7.6h8.5v1h-8.5v7.6h9.3v1H111.8z M126.6,10.9h1.2l7,16.7h0.1l7-16.7h1.2v18.3h-1.1V13.5h-0.1l-6.6,15.6h-1.1l-6.6-15.6h-0.1v15.6
	h-1.1V10.9z M147.8,29.2h-1.2l6.6-18.3h1.3l6.6,18.3h-1.2l-6-16.9h-0.1L147.8,29.2z M149.5,22.3h8.8v1h-8.8V22.3z"/>
<linearGradient id="SVGID_1_" gradientUnits="userSpaceOnUse" x1="38.2541" y1="25.2702" x2="18.4762" y2="5.3249" gradientTransform="matrix(1 0 0 -1 0 41.2756)">
	<stop  offset="0" style="stop-color:#D77970"/>
	<stop  offset="1" style="stop-color:#FEAD9B"/>
</linearGradient>
<path class="st1" d="M22.8,17.7c0,0.1,0,0.1,0,0.2c0,0.1,0,0.1,0.1,0.2L34,34.2c0,0.1,0.1,0.1,0.2,0.1c0.1,0,0.1,0,0.2,0
	c0.1,0,0.1,0,0.2-0.1c0.1,0,0.1-0.1,0.1-0.2l5.6-13.5c0-0.1,0-0.2,0-0.3l-1.8-4.6c0-0.1-0.1-0.1-0.2-0.2c-0.1,0-0.2-0.1-0.2-0.1
	L23.9,16c-0.1,0-0.1,0-0.2,0.1c-0.1,0-0.1,0.1-0.1,0.2L22.8,17.7z"/>
<linearGradient id="SVGID_00000169519935555832650150000002601924779281048724_" gradientUnits="userSpaceOnUse" x1="34.1767" y1="33.7724" x2="29.823" y2="23.8973" gradientTransform="matrix(1 0 0 -1 0 41.2756)">
	<stop  offset="0" style="stop-color:#D77970"/>
	<stop  offset="1" style="stop-color:#FEAD9B"/>
</linearGradient>
<path style="fill:url(#SVGID_00000169519935555832650150000002601924779281048724_);" d="M37.4,13.2l-2-4.8c0-0.1-0.1-0.1-0.1-0.1
	c0,0-0.1-0.1-0.1-0.1c-0.1,0-0.1,0-0.2,0c-0.1,0-0.1,0-0.2,0.1l-9.1,5.3c0,0-0.1,0-0.1,0.1c0,0,0,0.1,0,0.1c0,0,0,0.1,0.1,0.1
	c0,0,0.1,0,0.1,0H37c0.1,0,0.1,0,0.2,0c0.1,0,0.1-0.1,0.1-0.1c0-0.1,0.1-0.1,0.1-0.2C37.4,13.4,37.4,13.3,37.4,13.2L37.4,13.2z"/>
<linearGradient id="SVGID_00000121989250418016333510000005113720244040570537_" gradientUnits="userSpaceOnUse" x1="11.4259" y1="33.8049" x2="7.0732" y2="23.9287" gradientTransform="matrix(1 0 0 -1 0 41.2756)">
	<stop  offset="0" style="stop-color:#D77970"/>
	<stop  offset="1" style="stop-color:#FEAD9B"/>
</linearGradient>
<path style="fill:url(#SVGID_00000121989250418016333510000005113720244040570537_);" d="M5,8.4l-2,4.8c0,0.1,0,0.1,0,0.2
	c0,0.1,0,0.1,0.1,0.2c0,0.1,0.1,0.1,0.1,0.1c0.1,0,0.1,0,0.2,0h11.2c0,0,0.1,0,0.1,0c0,0,0-0.1,0.1-0.1c0,0,0-0.1,0-0.1
	c0,0,0-0.1-0.1-0.1L5.6,8.2c0,0-0.1,0-0.2-0.1c-0.1,0-0.1,0-0.2,0c-0.1,0-0.1,0-0.1,0.1C5,8.3,5,8.4,5,8.4L5,8.4z"/>
<linearGradient id="SVGID_00000121281022067155836720000008584525686739179710_" gradientUnits="userSpaceOnUse" x1="32.3399" y1="14.8101" x2="17.0487" y2="4.5115" gradientTransform="matrix(1 0 0 -1 0 41.2756)">
	<stop  offset="0" style="stop-color:#D77970"/>
	<stop  offset="1" style="stop-color:#FEAD9B"/>
</linearGradient>
<path style="fill:url(#SVGID_00000121281022067155836720000008584525686739179710_);" d="M22.8,39.6l9-3.7c0.1,0,0.1-0.1,0.2-0.1
	c0,0,0.1-0.1,0.1-0.2c0-0.1,0-0.1,0-0.2c0-0.1,0-0.1-0.1-0.2l-9-11.2c-0.1-0.1-0.1-0.1-0.2-0.1c-0.1,0-0.2,0-0.2,0
	c-0.1,0-0.1,0.1-0.2,0.1c0,0.1-0.1,0.1-0.1,0.2v14.9c0,0.1,0,0.1,0,0.2c0,0.1,0.1,0.1,0.1,0.1c0.1,0,0.1,0.1,0.2,0.1
	C22.7,39.7,22.8,39.7,22.8,39.6L22.8,39.6z"/>
<linearGradient id="SVGID_00000145763621137389726000000000421961951255570617_" gradientUnits="userSpaceOnUse" x1="20.5993" y1="11.4529" x2="5.309" y2="1.1566" gradientTransform="matrix(1 0 0 -1 0 41.2756)">
	<stop  offset="0" style="stop-color:#D77970"/>
	<stop  offset="1" style="stop-color:#FEAD9B"/>
</linearGradient>
<path style="fill:url(#SVGID_00000145763621137389726000000000421961951255570617_);" d="M8.5,35.9l9,3.7c0.1,0,0.1,0,0.2,0
	s0.1,0,0.2-0.1c0.1,0,0.1-0.1,0.1-0.1c0-0.1,0-0.1,0-0.2V24.3c0-0.1,0-0.2-0.1-0.2c0-0.1-0.1-0.1-0.2-0.1c-0.1,0-0.2,0-0.2,0
	c-0.1,0-0.2,0.1-0.2,0.1l-9,11.2c0,0-0.1,0.1-0.1,0.2c0,0.1,0,0.1,0,0.2c0,0.1,0,0.1,0.1,0.2C8.4,35.8,8.5,35.9,8.5,35.9L8.5,35.9z"
	/>
<linearGradient id="SVGID_00000083086282751735793140000015169932807695878583_" gradientUnits="userSpaceOnUse" x1="24.0633" y1="43.5822" x2="13.4356" y2="20.0768" gradientTransform="matrix(1 0 0 -1 0 41.2756)">
	<stop  offset="0" style="stop-color:#D77970"/>
	<stop  offset="1" style="stop-color:#FEAD9B"/>
</linearGradient>
<path style="fill:url(#SVGID_00000083086282751735793140000015169932807695878583_);" d="M33.7,5.9L20.3,0.4c0,0-0.1,0-0.2,0
	c-0.1,0-0.1,0-0.2,0L6.7,5.9C6.6,5.9,6.5,6,6.5,6c0,0.1-0.1,0.1-0.1,0.2c0,0.1,0,0.2,0,0.2c0,0.1,0.1,0.1,0.2,0.2l12.3,6.9
	c0.4,0.2,0.8,0.3,1.3,0.3c0.4,0,0.9-0.1,1.3-0.3l12.3-6.9c0.1,0,0.1-0.1,0.2-0.2c0-0.1,0.1-0.1,0-0.2s0-0.1-0.1-0.2
	C33.8,6,33.8,5.9,33.7,5.9L33.7,5.9z M17.8,10.8c0-0.5,0.1-1,0.3-1.4c0.2-0.4,0.6-0.8,1.1-1c0.4-0.2,1-0.3,1.4-0.2
	c0.5,0.1,0.9,0.3,1.3,0.7c0.3,0.3,0.6,0.8,0.7,1.3c0.1,0.5,0,1-0.2,1.4c-0.2,0.4-0.5,0.8-1,1.1C21,13,20.5,13.1,20,13
	c-0.6,0-1.1-0.3-1.5-0.7C18.1,11.9,17.8,11.4,17.8,10.8L17.8,10.8z"/>
<linearGradient id="SVGID_00000100366457787171000330000016606278238839701423_" gradientUnits="userSpaceOnUse" x1="14.204" y1="26.4975" x2="-5.5738" y2="6.5521" gradientTransform="matrix(1 0 0 -1 0 41.2756)">
	<stop  offset="0" style="stop-color:#D77970"/>
	<stop  offset="1" style="stop-color:#FEAD9B"/>
</linearGradient>
<path style="fill:url(#SVGID_00000100366457787171000330000016606278238839701423_);" d="M16.4,16L2.2,15.5c-0.1,0-0.2,0-0.2,0.1
	c-0.1,0-0.1,0.1-0.2,0.2L0,20.4c0,0.1,0,0.2,0,0.3l5.6,13.5c0,0.1,0.1,0.1,0.1,0.2c0.1,0,0.1,0.1,0.2,0.1c0.1,0,0.1,0,0.2,0
	c0.1,0,0.1-0.1,0.2-0.1l11.1-16.1c0-0.1,0.1-0.1,0.1-0.2c0-0.1,0-0.1,0-0.2l-0.7-1.5c0-0.1-0.1-0.1-0.1-0.2C16.6,16,16.5,16,16.4,16
	L16.4,16z"/>
</svg>
