<?xml version="1.0" encoding="utf-8"?>
<!-- Generator: Adobe Illustrator 26.0.1, SVG Export Plug-In . SVG Version: 6.00 Build 0)  -->
<svg version="1.1" id="Layer_1" xmlns="http://www.w3.org/2000/svg" xmlns:xlink="http://www.w3.org/1999/xlink" x="0px" y="0px"
	 viewBox="0 0 48 48" style="enable-background:new 0 0 48 48;" xml:space="preserve">
<style type="text/css">
	.st0{fill:#FFFFFF;}
</style>
<path class="st0" d="M26.9,21.5c0,0.1,0,0.1,0,0.2c0,0.1,0,0.1,0.1,0.2l12.2,17.6c0,0.1,0.1,0.1,0.2,0.1c0.1,0,0.2,0,0.2,0
	c0.1,0,0.2,0,0.2-0.1c0.1,0,0.1-0.1,0.1-0.2L46,24.7c0-0.1,0-0.2,0-0.3l-2-5c0-0.1-0.1-0.2-0.2-0.2c-0.1,0-0.2-0.1-0.3-0.1
	l-15.5,0.5c-0.1,0-0.2,0-0.2,0.1c-0.1,0-0.1,0.1-0.1,0.2L26.9,21.5z"/>
<path class="st0" d="M42.7,16.6l-2.2-5.2c0-0.1-0.1-0.1-0.1-0.2c0,0-0.1-0.1-0.2-0.1c-0.1,0-0.1,0-0.2,0c-0.1,0-0.1,0-0.2,0.1
	L30,16.9c0,0-0.1,0-0.1,0.1c0,0,0,0.1,0,0.1c0,0,0,0.1,0.1,0.1c0,0,0.1,0,0.1,0h12.2c0.1,0,0.1,0,0.2-0.1c0.1,0,0.1-0.1,0.2-0.1
	c0-0.1,0.1-0.1,0.1-0.2C42.8,16.8,42.8,16.7,42.7,16.6z"/>
<path class="st0" d="M7.4,11.4l-2.2,5.2c0,0.1,0,0.1,0,0.2c0,0.1,0,0.1,0.1,0.2c0,0.1,0.1,0.1,0.2,0.1c0.1,0,0.1,0.1,0.2,0.1h12.2
	c0,0,0.1,0,0.1,0c0,0,0.1-0.1,0.1-0.1c0,0,0-0.1,0-0.1c0,0,0-0.1-0.1-0.1l-9.9-5.7c-0.1,0-0.1-0.1-0.2-0.1c-0.1,0-0.1,0-0.2,0
	s-0.1,0.1-0.2,0.1C7.5,11.3,7.5,11.3,7.4,11.4z"/>
<path class="st0" d="M26.9,45.4l9.8-4.1c0.1,0,0.1-0.1,0.2-0.1c0-0.1,0.1-0.1,0.1-0.2c0-0.1,0-0.1,0-0.2c0-0.1-0.1-0.1-0.1-0.2
	l-9.8-12.2c-0.1-0.1-0.1-0.1-0.2-0.1c-0.1,0-0.2,0-0.3,0c-0.1,0-0.2,0.1-0.2,0.2c-0.1,0.1-0.1,0.2-0.1,0.2V45c0,0.1,0,0.1,0.1,0.2
	c0,0.1,0.1,0.1,0.1,0.2c0.1,0,0.1,0.1,0.2,0.1C26.8,45.4,26.8,45.4,26.9,45.4z"/>
<path class="st0" d="M11.3,41.3l9.8,4.1c0.1,0,0.1,0,0.2,0c0.1,0,0.1,0,0.2-0.1c0.1,0,0.1-0.1,0.1-0.2c0-0.1,0.1-0.1,0.1-0.2V28.7
	c0-0.1,0-0.2-0.1-0.2c-0.1-0.1-0.1-0.1-0.2-0.2c-0.1,0-0.2,0-0.3,0c-0.1,0-0.2,0.1-0.2,0.1l-9.8,12.2c0,0.1-0.1,0.1-0.1,0.2
	c0,0.1,0,0.1,0,0.2c0,0.1,0,0.1,0.1,0.2C11.2,41.3,11.2,41.3,11.3,41.3z"/>
<path class="st0" d="M38.7,8.6l-14.6-6c-0.1,0-0.1,0-0.2,0s-0.1,0-0.2,0l-14.6,6c-0.1,0-0.1,0.1-0.2,0.2C9,8.9,9,8.9,9,9
	C9,9.1,9,9.2,9,9.3c0,0.1,0.1,0.1,0.2,0.2l13.4,7.5c0.4,0.2,0.9,0.4,1.4,0.4c0.5,0,1-0.1,1.4-0.4l13.4-7.5c0.1,0,0.1-0.1,0.2-0.2
	C39,9.2,39,9.1,39,9c0-0.1,0-0.2-0.1-0.2C38.9,8.7,38.8,8.7,38.7,8.6z M21.4,14c0-0.5,0.1-1.1,0.4-1.5c0.3-0.5,0.7-0.8,1.2-1.1
	c0.5-0.2,1-0.3,1.6-0.2c0.5,0.1,1,0.3,1.4,0.7c0.4,0.4,0.6,0.9,0.7,1.4c0.1,0.5,0,1.1-0.2,1.6c-0.2,0.5-0.6,0.9-1.1,1.2
	c-0.5,0.3-1,0.4-1.5,0.3c-0.6-0.1-1.2-0.3-1.6-0.8C21.7,15.2,21.5,14.6,21.4,14L21.4,14z"/>
<path class="st0" d="M19.9,19.6L4.4,19.1c-0.1,0-0.2,0-0.3,0.1c-0.1,0-0.1,0.1-0.2,0.2l-2,5c0,0.1,0,0.2,0,0.3l6.1,14.7
	c0,0.1,0.1,0.1,0.1,0.2c0.1,0,0.1,0.1,0.2,0.1c0.1,0,0.2,0,0.2,0s0.1-0.1,0.2-0.1l12.2-17.6c0-0.1,0.1-0.1,0.1-0.2
	c0-0.1,0-0.1,0-0.2l-0.8-1.6c0-0.1-0.1-0.1-0.1-0.2C20.1,19.7,20,19.6,19.9,19.6z"/>
</svg>
