<?xml version="1.0" encoding="utf-8"?>
<!-- Generator: Adobe Illustrator 26.0.1, SVG Export Plug-In . SVG Version: 6.00 Build 0)  -->
<svg version="1.1" id="Layer_1" xmlns="http://www.w3.org/2000/svg" xmlns:xlink="http://www.w3.org/1999/xlink" x="0px" y="0px"
	 viewBox="0 0 48 48" style="enable-background:new 0 0 48 48;" xml:space="preserve">
<style type="text/css">
	.st0{fill:#F08A81;}
</style>
<path class="st0" d="M26.8,21.6c0,0.1,0,0.1,0,0.2c0,0.1,0,0.1,0.1,0.2l11.9,17.2c0,0.1,0.1,0.1,0.2,0.1c0.1,0,0.1,0,0.2,0
	s0.1,0,0.2-0.1c0.1,0,0.1-0.1,0.1-0.2l6-14.4c0-0.1,0-0.2,0-0.3l-1.9-4.9c0-0.1-0.1-0.1-0.2-0.2c-0.1,0-0.2-0.1-0.3-0.1L28,19.7
	c-0.1,0-0.2,0-0.2,0.1c-0.1,0-0.1,0.1-0.1,0.2L26.8,21.6z"/>
<path class="st0" d="M42.3,16.8l-2.1-5.1c0-0.1-0.1-0.1-0.1-0.2c0,0-0.1-0.1-0.2-0.1c-0.1,0-0.1,0-0.2,0c-0.1,0-0.1,0-0.2,0.1
	L29.9,17c0,0-0.1,0-0.1,0.1c0,0,0,0.1,0,0.1c0,0,0,0.1,0.1,0.1c0,0,0.1,0,0.1,0h12c0.1,0,0.1,0,0.2-0.1c0.1,0,0.1-0.1,0.2-0.1
	c0-0.1,0.1-0.1,0.1-0.2C42.4,16.9,42.4,16.8,42.3,16.8z"/>
<path class="st0" d="M7.8,11.6l-2.1,5.1c0,0.1,0,0.1,0,0.2c0,0.1,0,0.1,0.1,0.2s0.1,0.1,0.2,0.1c0.1,0,0.1,0.1,0.2,0.1h12
	c0,0,0.1,0,0.1,0c0,0,0.1-0.1,0.1-0.1c0,0,0-0.1,0-0.1c0,0,0-0.1-0.1-0.1l-9.7-5.6c-0.1,0-0.1-0.1-0.2-0.1c-0.1,0-0.1,0-0.2,0
	s-0.1,0.1-0.2,0.1C7.8,11.5,7.8,11.6,7.8,11.6z"/>
<path class="st0" d="M26.8,44.9l9.6-4c0.1,0,0.1-0.1,0.2-0.1s0.1-0.1,0.1-0.2c0-0.1,0-0.1,0-0.2c0-0.1-0.1-0.1-0.1-0.2L27,28.3
	c-0.1-0.1-0.1-0.1-0.2-0.1c-0.1,0-0.2,0-0.3,0c-0.1,0-0.2,0.1-0.2,0.2c0,0.1-0.1,0.2-0.1,0.2v15.9c0,0.1,0,0.1,0.1,0.2
	c0,0.1,0.1,0.1,0.1,0.2c0.1,0,0.1,0.1,0.2,0.1C26.7,45,26.8,45,26.8,44.9z"/>
<path class="st0" d="M11.6,41l9.6,4c0.1,0,0.1,0,0.2,0c0.1,0,0.1,0,0.2-0.1c0.1,0,0.1-0.1,0.1-0.2c0-0.1,0.1-0.1,0.1-0.2V28.6
	c0-0.1,0-0.2-0.1-0.2c0-0.1-0.1-0.1-0.2-0.2c-0.1,0-0.2,0-0.3,0c-0.1,0-0.2,0.1-0.2,0.1l-9.6,11.9c0,0.1-0.1,0.1-0.1,0.2
	c0,0.1,0,0.1,0,0.2c0,0.1,0,0.1,0.1,0.2C11.5,40.9,11.5,41,11.6,41z"/>
<path class="st0" d="M38.4,9L24.2,3.1c-0.1,0-0.1,0-0.2,0s-0.1,0-0.2,0L9.6,9C9.5,9,9.4,9,9.4,9.1c0,0.1-0.1,0.1-0.1,0.2
	c0,0.1,0,0.2,0.1,0.2c0,0.1,0.1,0.1,0.2,0.2l13.1,7.3c0.4,0.2,0.9,0.3,1.3,0.3c0.5,0,0.9-0.1,1.3-0.3l13.1-7.3
	c0.1,0,0.1-0.1,0.2-0.2c0-0.1,0.1-0.2,0.1-0.2c0-0.1,0-0.2-0.1-0.2C38.6,9,38.5,9,38.4,9z M21.5,14.2c0-0.5,0.1-1.1,0.3-1.5
	c0.3-0.5,0.7-0.8,1.1-1c0.5-0.2,1-0.3,1.5-0.2c0.5,0.1,1,0.3,1.4,0.7c0.4,0.4,0.6,0.9,0.7,1.4c0.1,0.5,0,1.1-0.2,1.5
	c-0.2,0.5-0.6,0.9-1,1.1c-0.5,0.3-1,0.4-1.5,0.3c-0.6,0-1.2-0.3-1.6-0.7C21.8,15.4,21.5,14.8,21.5,14.2L21.5,14.2z"/>
<path class="st0" d="M20,19.7L4.8,19.2c-0.1,0-0.2,0-0.3,0.1c-0.1,0-0.1,0.1-0.2,0.2l-1.9,4.9c0,0.1,0,0.2,0,0.3l6,14.4
	c0,0.1,0.1,0.1,0.1,0.2c0.1,0,0.1,0.1,0.2,0.1s0.2,0,0.2,0c0.1,0,0.1-0.1,0.2-0.1L21.1,22c0-0.1,0.1-0.1,0.1-0.2c0-0.1,0-0.1,0-0.2
	L20.4,20c0-0.1-0.1-0.1-0.1-0.2C20.2,19.7,20.1,19.7,20,19.7z"/>
</svg>
